<?xml version="1.0" encoding="utf-8"?>
<!-- Generator: Adobe Illustrator 23.0.1, SVG Export Plug-In . SVG Version: 6.00 Build 0)  -->
<svg version="1.1" id="Слой_1" xmlns="http://www.w3.org/2000/svg" xmlns:xlink="http://www.w3.org/1999/xlink" x="0px" y="0px"
	 viewBox="0 0 69.33 72.87" style="enable-background:new 0 0 69.33 72.87;" xml:space="preserve">
<style type="text/css">
	.st0{fill:#F47D2F;}
</style>
<g>
	<path class="st0" d="M63.03,72.87h-8.36c-1.38,0-2.51-1.13-2.51-2.51v-2.53H50.9c-0.47,0.63-1.2,1.02-2,1.02s-1.53-0.39-2-1.02
		h-5.52c-0.47,0.63-1.2,1.02-2,1.02s-1.53-0.39-2-1.02h-5.52c-0.47,0.63-1.2,1.02-2,1.02s-1.53-0.39-2-1.02h-5.52
		c-0.47,0.63-1.2,1.02-2,1.02s-1.53-0.39-2-1.02h-1.25v2.53c0,1.38-1.13,2.51-2.51,2.51H6.23c-1.38,0-2.51-1.13-2.51-2.51v-1.52
		c-1-0.07-1.85-0.74-2.18-1.69c-0.58-0.47-0.93-1.18-0.93-1.93c0-0.68,0.29-1.33,0.78-1.8v-4.74C0.56,58.26,0,57.41,0,56.45
		c0-0.97,0.56-1.81,1.39-2.23V41.14C0.56,40.72,0,39.88,0,38.91s0.56-1.81,1.39-2.23V23.6C0.56,23.18,0,22.34,0,21.37
		s0.56-1.81,1.39-2.23V6.06C0.56,5.65,0,4.8,0,3.83C0,2.77,0.66,1.86,1.63,1.5C2.03,0.61,2.91,0,3.9,0C4.85,0,5.67,0.52,6.1,1.32
		h2.54C9.07,0.52,9.9,0,10.84,0c0.94,0,1.77,0.52,2.19,1.32h5.13C18.59,0.52,19.41,0,20.35,0s1.77,0.52,2.19,1.32h5.13
		C28.11,0.52,28.93,0,29.87,0c0.94,0,1.77,0.52,2.19,1.32h5.13C37.62,0.52,38.45,0,39.39,0s1.77,0.52,2.19,1.32h5.13
		C47.14,0.52,47.96,0,48.91,0c0.94,0,1.77,0.52,2.2,1.32h5.13C56.66,0.52,57.48,0,58.42,0s1.77,0.52,2.19,1.32h2.14
		C63.18,0.52,64.01,0,64.95,0c1.02,0,1.92,0.64,2.31,1.57c0.88,0.41,1.46,1.28,1.46,2.27c0,0.91-0.5,1.72-1.26,2.16v13.22
		c0.76,0.44,1.26,1.25,1.26,2.16s-0.5,1.72-1.26,2.16v13.22c0.76,0.44,1.26,1.25,1.26,2.16s-0.5,1.72-1.26,2.16v13.22
		c0.76,0.44,1.26,1.25,1.26,2.16s-0.5,1.72-1.26,2.16v4.19c1.08,0.3,1.87,1.27,1.87,2.42c0,1.3-1.01,2.37-2.31,2.5
		c-0.35,0.52-0.88,0.9-1.48,1.06v1.58C65.54,71.74,64.41,72.87,63.03,72.87z M50.32,65.83h2.84c0.55,0,1,0.45,1,1v3.53
		c0,0.28,0.23,0.51,0.51,0.51h8.36c0.28,0,0.51-0.23,0.51-0.51v-2.58c0-0.31,0.15-0.61,0.4-0.8c0.25-0.19,0.58-0.25,0.88-0.16
		c0.06,0.02,0.11,0.03,0.13,0.03c0.25,0,0.42-0.2,0.48-0.39c0.12-0.43,0.52-0.72,0.96-0.72h0.38c0.31,0,0.56-0.23,0.56-0.51
		s-0.25-0.51-0.56-0.51h-0.31c-0.55,0-1-0.45-1-1v-5.78c0-0.48,0.34-0.89,0.81-0.98c0.26-0.05,0.45-0.26,0.45-0.5
		c0-0.24-0.19-0.45-0.45-0.5c-0.47-0.09-0.81-0.5-0.81-0.98V40.39c0-0.48,0.34-0.89,0.81-0.98c0.26-0.05,0.45-0.26,0.45-0.5
		s-0.19-0.45-0.45-0.5c-0.47-0.09-0.81-0.5-0.81-0.98V22.85c0-0.48,0.34-0.89,0.81-0.98c0.26-0.05,0.45-0.26,0.45-0.5
		c0-0.24-0.19-0.45-0.45-0.5c-0.47-0.09-0.81-0.5-0.81-0.98V5.31c0-0.48,0.34-0.89,0.81-0.98c0.26-0.05,0.45-0.26,0.45-0.5
		c0-0.24-0.19-0.45-0.45-0.5c-0.43-0.08-0.76-0.42-0.82-0.85C65.41,2.21,65.2,2,64.95,2c-0.25,0-0.46,0.2-0.5,0.47
		c-0.07,0.49-0.49,0.85-0.99,0.85h-3.55c-0.49,0-0.92-0.36-0.99-0.85C58.88,2.2,58.67,2,58.42,2s-0.46,0.2-0.5,0.47
		c-0.07,0.49-0.49,0.85-0.99,0.85h-6.54c-0.5,0-0.92-0.36-0.99-0.85C49.36,2.2,49.15,2,48.91,2c-0.25,0-0.46,0.2-0.5,0.47
		c-0.07,0.49-0.49,0.85-0.99,0.85h-6.54c-0.49,0-0.92-0.36-0.99-0.85C39.85,2.2,39.64,2,39.39,2s-0.46,0.2-0.5,0.47
		c-0.07,0.49-0.49,0.85-0.99,0.85h-6.54c-0.49,0-0.92-0.36-0.99-0.85C30.33,2.2,30.12,2,29.87,2s-0.46,0.2-0.5,0.47
		c-0.07,0.49-0.49,0.85-0.99,0.85h-6.54c-0.49,0-0.92-0.36-0.99-0.85C20.81,2.2,20.6,2,20.35,2s-0.46,0.2-0.5,0.47
		c-0.07,0.49-0.49,0.85-0.99,0.85h-6.54c-0.49,0-0.92-0.36-0.99-0.85C11.3,2.2,11.09,2,10.84,2s-0.46,0.2-0.5,0.47
		c-0.07,0.49-0.49,0.85-0.99,0.85H5.39c-0.5,0-0.92-0.36-0.99-0.85C4.36,2.2,4.15,2,3.9,2c-0.25,0-0.46,0.21-0.5,0.48
		c-0.07,0.46-0.44,0.81-0.9,0.85C2.22,3.36,2,3.57,2,3.83c0,0.26,0.21,0.47,0.5,0.5c0.51,0.05,0.9,0.48,0.9,0.99v14.55
		c0,0.51-0.39,0.94-0.9,0.99C2.21,20.9,2,21.11,2,21.37c0,0.26,0.21,0.47,0.5,0.5c0.51,0.05,0.9,0.48,0.9,0.99v14.55
		c0,0.51-0.39,0.94-0.9,1C2.21,38.44,2,38.65,2,38.91s0.21,0.47,0.5,0.5c0.51,0.05,0.9,0.48,0.9,1v14.55c0,0.51-0.39,0.94-0.9,1
		C2.21,55.98,2,56.19,2,56.45s0.21,0.47,0.5,0.5c0.51,0.05,0.9,0.48,0.9,1v5.97c0,0.36-0.2,0.7-0.51,0.87
		c-0.17,0.1-0.27,0.26-0.27,0.43c0,0.18,0.11,0.34,0.28,0.44c0.28,0.15,0.46,0.42,0.51,0.73c0.06,0.37,0.46,0.59,0.76,0.39
		c0.31-0.21,0.7-0.23,1.03-0.05c0.33,0.17,0.53,0.51,0.53,0.88v2.76c0,0.28,0.23,0.51,0.51,0.51h8.36c0.28,0,0.51-0.23,0.51-0.51
		v-3.53c0-0.55,0.45-1,1-1h2.84c0.42,0,0.8,0.26,0.94,0.66c0.16,0.43,0.78,0.43,0.94,0c0.14-0.4,0.52-0.66,0.94-0.66h6.69
		c0.42,0,0.8,0.26,0.94,0.66c0.16,0.44,0.78,0.44,0.94,0c0.14-0.4,0.52-0.66,0.94-0.66h6.69c0.42,0,0.8,0.26,0.94,0.66
		c0.16,0.43,0.79,0.43,0.94,0c0.14-0.4,0.52-0.66,0.94-0.66h6.69c0.42,0,0.8,0.26,0.94,0.66c0.16,0.43,0.78,0.43,0.94,0
		C49.52,66.09,49.89,65.83,50.32,65.83z M5.42,9.66c-0.1,0-0.2-0.02-0.3-0.05C4.7,9.48,4.42,9.1,4.42,8.66V5.34c0-0.55,0.45-1,1-1
		h3.91c0.55,0,1,0.45,1,1v1.67c0,0.55-0.45,1-1,1H8.56c-0.92,0-1.79,0.46-2.33,1.22C6.04,9.51,5.74,9.66,5.42,9.66z M63.44,9.17
		c-0.26,0-0.52-0.1-0.71-0.3c-0.54-0.55-1.26-0.86-2.03-0.86h-0.76c-0.55,0-1-0.45-1-1V5.34c0-0.55,0.45-1,1-1h3.5
		c0.55,0,1,0.45,1,1v2.83c0,0.41-0.25,0.77-0.62,0.93C63.69,9.14,63.56,9.17,63.44,9.17z M56.91,8.01h-6.5c-0.55,0-1-0.45-1-1V5.34
		c0-0.55,0.45-1,1-1h6.5c0.55,0,1,0.45,1,1v1.67C57.91,7.56,57.46,8.01,56.91,8.01z M47.39,8.01h-6.5c-0.55,0-1-0.45-1-1V5.34
		c0-0.55,0.45-1,1-1h6.5c0.55,0,1,0.45,1,1v1.67C48.39,7.56,47.95,8.01,47.39,8.01z M37.88,8.01h-6.5c-0.55,0-1-0.45-1-1V5.34
		c0-0.55,0.45-1,1-1h6.5c0.55,0,1,0.45,1,1v1.67C38.88,7.56,38.43,8.01,37.88,8.01z M28.36,8.01h-6.5c-0.55,0-1-0.45-1-1V5.34
		c0-0.55,0.45-1,1-1h6.5c0.55,0,1,0.45,1,1v1.67C29.36,7.56,28.91,8.01,28.36,8.01z M18.84,8.01h-6.5c-0.55,0-1-0.45-1-1V5.34
		c0-0.55,0.45-1,1-1h6.5c0.55,0,1,0.45,1,1v1.67C19.84,7.56,19.4,8.01,18.84,8.01z"/>
</g>
</svg>
